<svg width="1558" height="1558" viewBox="0 0 1558 1558" fill="none" xmlns="http://www.w3.org/2000/svg">
<path d="M871.475 326.874C880.321 337.068 878.686 350.411 877.817 362.874C876.698 371.813 874.95 380.659 873.196 389.503C872.299 394.055 871.482 398.618 870.682 403.186C870.448 404.482 870.213 405.777 869.972 407.112C868.184 418.118 866.818 429.09 870.418 439.874C870.701 440.822 870.984 441.771 871.276 442.749C872.96 445.599 874.566 445.973 877.817 446.874C878.863 447.204 879.909 447.534 880.988 447.874C883.707 447.944 886.396 447.967 889.113 447.936C889.855 447.932 890.597 447.927 891.361 447.922C893.188 447.911 895.015 447.893 896.842 447.874C901.784 459.686 903.607 472.767 899.353 485.061C895.749 492.846 890.196 498.301 882.045 501.874C853.25 512.208 820.788 514.813 790.368 517.257C786.568 517.563 782.769 517.882 778.97 518.204C759.335 519.841 739.711 521.034 719.995 521.124C718.805 521.144 717.615 521.165 716.389 521.186C706.826 521.229 699.416 519.749 691.787 513.874C679.671 495.296 691.208 462.98 695.404 443.065C696.705 436.268 697.334 429.583 697.468 422.686C697.527 421.515 697.527 421.515 697.588 420.321C697.655 416.153 697.455 414.375 694.797 410.901C691.49 408.674 689.513 408.063 685.511 407.624C684.315 407.477 683.118 407.33 681.886 407.178C679.266 406.97 676.637 406.855 674.008 406.819C664.201 406.645 664.201 406.645 661.452 404.42C660.189 402.235 659.579 400.308 659.02 397.874C658.791 396.984 658.562 396.095 658.326 395.178C656.54 387.195 655.599 380.356 659.693 372.928C682.116 340.956 745.133 334.533 781.748 327.426C854.145 313.618 854.145 313.618 871.475 326.874Z" fill="white"/>
<path d="M871.033 686.514C876.734 691.777 878.37 697.373 878.564 704.79C878.557 705.808 878.55 706.825 878.543 707.874C878.542 708.968 878.54 710.062 878.539 711.19C878.2 724.639 875.408 737.764 872.736 750.941C866.355 776.785 866.355 776.785 871.512 801.624C874.54 805.456 877.261 806.701 882.045 807.874C885.671 808.113 885.671 808.113 889.311 807.999C891.138 807.972 891.138 807.972 893.003 807.944C893.921 807.921 894.839 807.898 895.785 807.874C901.728 818.351 903.125 830.403 900.306 842.022C899.329 844.456 898.228 846.626 896.842 848.874C896.472 849.514 896.101 850.155 895.719 850.815C890.38 858.935 881.229 862.667 871.805 864.999C870.356 865.37 870.356 865.37 868.878 865.748C846.517 871.307 823.588 873.547 800.656 875.874C799.948 875.946 799.24 876.019 798.51 876.094C710.869 885.07 710.869 885.07 697.072 877.874C691.577 873.561 688.192 868.779 687.311 861.955C686.319 847.612 689.14 833.957 692.18 819.971C693.091 815.721 693.905 811.458 694.693 807.186C695.045 805.324 695.045 805.324 695.404 803.424C696.597 796.487 697.331 789.708 697.468 782.686C697.527 781.515 697.527 781.515 697.588 780.321C697.657 776.057 697.492 774.39 694.648 770.901C686.332 765.009 673.243 766.261 663.248 765.874C654.333 746.261 654.333 746.261 657.757 736.432C664.39 722.258 679.878 715.236 694.384 709.772C735.631 694.801 829.855 661.761 871.033 686.514Z" fill="white"/>
<path d="M446.103 500.436C446.894 500.43 447.685 500.424 448.5 500.418C458.601 500.367 468.143 500.595 477.086 505.561C483.203 511.859 484.764 518.946 484.815 527.311C484.83 528.403 484.845 529.495 484.861 530.62C484.656 536.757 483.495 542.816 482.503 548.874C482.382 549.619 482.261 550.365 482.136 551.133C481.333 556.073 480.517 561.009 479.692 565.945C479.261 568.529 478.833 571.114 478.405 573.698C478.13 575.353 477.854 577.008 477.577 578.663C477.451 579.429 477.324 580.196 477.194 580.986C476.277 586.445 476.277 586.445 475.602 588.94C474.416 593.551 474.863 598.53 474.84 603.249C474.818 604.373 474.796 605.497 474.774 606.655C474.704 614.694 474.704 614.694 478.275 621.874C483.721 626.761 488.128 626.987 495.451 627.436C497.454 627.562 497.454 627.562 499.498 627.69C500.517 627.751 501.536 627.811 502.586 627.874C508.349 638.704 509.099 652.5 505.162 664.061C500.481 673.908 493.067 679.115 482.62 683.101C450.411 694.259 412.95 695.005 379.105 697.467C374.567 697.799 370.036 698.17 365.504 698.565C353.974 699.551 342.474 700.08 330.898 700.169C328.786 700.186 326.674 700.212 324.562 700.24C315.951 700.233 307.407 700.076 300.239 695.077C299.694 694.432 299.149 693.788 298.587 693.124C298.021 692.489 297.454 691.855 296.87 691.202C286.637 674.81 295.788 647.711 299.933 630.428C304.931 610.667 304.931 610.667 302.221 591.311C296.558 585.954 287.742 586.318 280.156 585.749C278.543 585.619 278.543 585.619 276.896 585.487C274.262 585.276 271.627 585.072 268.992 584.874C264.647 575.201 260.833 564.056 264.516 553.569C265.814 551.416 267.231 549.71 268.992 547.874C269.688 547.147 270.384 546.42 271.102 545.67C278.494 538.736 287.059 534.774 296.473 530.874C297.535 530.429 297.535 530.429 298.618 529.976C323.454 519.775 350.46 514.351 376.804 508.874C377.79 508.668 378.776 508.461 379.791 508.249C384.909 507.192 390.036 506.221 395.191 505.343C397.133 505.012 399.073 504.671 401.011 504.322C416.064 501.661 430.819 500.481 446.103 500.436Z" fill="white"/>
<path d="M1232.96 500.436C1233.78 500.43 1234.6 500.423 1235.45 500.417C1258.96 500.303 1258.96 500.303 1267.42 508.116C1274.53 516.53 1272.82 529.337 1271.82 539.459C1271.04 545.959 1270 552.417 1268.9 558.874C1268.64 560.42 1268.64 560.42 1268.37 561.999C1267.5 567.078 1266.61 572.153 1265.69 577.225C1265.53 578.148 1265.36 579.071 1265.19 580.022C1264.83 581.999 1264.46 583.974 1264.09 585.948C1262.06 596.822 1259.54 611.823 1265.73 621.874C1269.77 626.285 1274.45 627.089 1280.45 627.561C1283.65 627.743 1286.84 627.83 1290.04 627.874C1293.03 633.558 1295.02 638.515 1295.33 644.874C1295.38 645.644 1295.44 646.415 1295.49 647.21C1295.9 657.494 1293.15 667.098 1285.81 674.874C1259.45 696.658 1204.69 694.806 1171.61 697.278C1167.63 697.58 1163.68 697.923 1159.72 698.404C1144.9 700.183 1129.7 700.012 1114.78 700.186C1113.45 700.216 1112.12 700.246 1110.76 700.276C1102.4 700.326 1094.1 699.847 1087.48 694.461C1079.47 685.941 1081.21 674.642 1081.6 664.016C1082.09 656.824 1083.76 649.871 1085.38 642.847C1093.19 616.027 1093.19 616.027 1089.21 589.874C1082.1 586.013 1073.26 586.262 1065.3 586.141C1062.48 585.989 1060.16 585.787 1057.5 584.874C1055.26 582.447 1054.25 579.94 1053.28 576.874C1052.84 575.543 1052.84 575.543 1052.4 574.186C1050.63 564.982 1050.2 557.399 1055.44 549.131C1079.44 518.808 1144.76 512.135 1181.32 505.605C1183.89 505.144 1186.46 504.673 1189.03 504.189C1203.7 501.446 1218.05 500.496 1232.96 500.436Z" fill="white"/>
<path d="M1235.47 860.499C1237.2 860.478 1237.2 860.478 1238.96 860.456C1247.68 860.505 1258.08 860.965 1265.27 866.186C1272.94 874.19 1272.69 883.777 1272.28 894.034C1271.27 908.145 1268.42 922.22 1265.74 936.123C1260.57 959.463 1260.57 959.463 1265.73 981.874C1270.81 986.68 1275.25 986.944 1282.11 987.061C1283.19 987.05 1283.19 987.05 1284.28 987.04C1286.38 987.104 1286.38 987.104 1290.04 987.874C1296.23 996.499 1296.39 1008.04 1294.84 1018.03C1292.82 1026.99 1288.69 1033.72 1280.53 1038.87C1257.8 1051.38 1226.67 1052.68 1201.12 1055.06C1198.44 1055.32 1195.76 1055.57 1193.08 1055.83C1168.54 1058.16 1144.13 1059.99 1119.46 1060.22C1117.73 1060.24 1116 1060.26 1114.28 1060.29C1094.6 1060.58 1094.6 1060.58 1087.56 1054.43C1079.93 1046.26 1080.91 1037.2 1081.44 1026.86C1082.49 1013.84 1085.71 1000.91 1088.35 988.113C1090.1 979.552 1091.72 971.176 1091.79 962.436C1091.83 961.674 1091.86 960.911 1091.9 960.126C1091.94 956.083 1091.68 954.336 1089.12 950.963C1081.98 946.111 1073.51 946.365 1065.03 946.19C1062.29 946.022 1060.07 945.806 1057.5 944.874C1055.33 942.427 1054.28 939.899 1053.28 936.874C1053.04 936.2 1052.8 935.526 1052.55 934.832C1050.31 928.14 1049.7 920.191 1052.75 913.686C1066.93 890.962 1104.71 883.294 1129.68 877.163C1164.49 868.687 1199.33 860.775 1235.47 860.499Z" fill="white"/>
<path d="M477.35 866.686C483.123 872.147 484.757 878.478 484.815 885.999C484.673 898.244 482.948 910.312 480.455 922.311C480.182 923.628 480.182 923.628 479.904 924.972C479.631 926.288 479.631 926.288 479.353 927.631C476.727 940.343 474.813 952.704 474.642 965.686C474.618 966.695 474.595 967.703 474.571 968.742C474.591 974.972 475.215 978.915 479.332 983.874C484.205 987.077 488.783 987.389 494.526 987.561C495.304 987.595 496.082 987.629 496.884 987.665C498.784 987.746 500.685 987.812 502.586 987.874C507.065 1000.59 509.819 1013.81 503.837 1026.62C503.424 1027.36 503.011 1028.11 502.586 1028.87C502.228 1029.54 501.869 1030.2 501.5 1030.88C494.546 1041.7 479.835 1044.36 467.759 1047.16C445.151 1052.15 422.267 1054.34 399.188 1056.28C394.518 1056.68 389.903 1057.24 385.26 1057.87C367.752 1059.45 350.126 1060.1 332.545 1060.23C330.798 1060.24 329.052 1060.26 327.306 1060.29C306.265 1060.6 306.265 1060.6 298.125 1053.69C286.868 1034.52 296.061 1007.87 300.507 987.741C302.367 979.172 304.173 970.706 304.203 961.936C304.22 960.71 304.238 959.484 304.256 958.221C303.837 954.568 303.101 952.739 300.701 949.874C292.334 944.546 278.66 945.388 268.992 944.874C268.306 943.292 267.624 941.708 266.944 940.124C266.564 939.242 266.183 938.36 265.792 937.452C262.831 930.027 261.829 920.733 264.751 913.17C281.588 887.504 326.191 880.358 354.608 873.874C355.43 873.686 356.252 873.498 357.098 873.304C455.873 850.822 455.873 850.822 477.35 866.686Z" fill="white"/>
<path d="M870.71 1046.23C875.628 1050.67 878.083 1056.05 878.518 1062.42C878.54 1064.49 878.525 1066.56 878.477 1068.62C878.458 1070.3 878.458 1070.3 878.439 1072.02C878.095 1084.41 875.688 1096.4 873.196 1108.53C872.228 1113.4 871.437 1118.29 870.682 1123.19C870.56 1123.96 870.439 1124.74 870.313 1125.54C867.096 1143.99 867.096 1143.99 871.475 1161.87C874.872 1165.35 878.24 1166.87 883.102 1167.87C887.336 1168.03 891.55 1167.99 895.785 1167.87C901.813 1178.24 903.336 1191.02 900.034 1202.47C895.972 1212.02 890.768 1217.42 880.988 1221.87C860.998 1229.16 839.364 1231.57 818.229 1233.94C817.105 1234.06 815.981 1234.19 814.822 1234.32C785.101 1237.67 755.69 1240.11 725.742 1240.25C724.228 1240.26 724.228 1240.26 722.683 1240.27C719.807 1240.29 716.933 1240.29 714.058 1240.27C713.212 1240.28 712.366 1240.28 711.494 1240.29C705.042 1240.22 699.067 1239.18 693.876 1235.26C693.405 1234.7 692.933 1234.14 692.447 1233.56C691.96 1233.01 691.472 1232.46 690.969 1231.89C681.642 1217.41 688.874 1195.18 692.18 1179.98C693.094 1175.7 693.906 1171.42 694.693 1167.12C694.928 1165.87 695.162 1164.62 695.404 1163.33C696.596 1156.59 697.344 1150.07 697.468 1143.25C697.508 1142.42 697.547 1141.58 697.588 1140.73C697.652 1136.48 697.512 1134.46 694.867 1130.91C688.257 1126.54 681.146 1126.5 673.356 1126.25C672.381 1126.21 671.406 1126.17 670.401 1126.13C668.017 1126.04 665.633 1125.95 663.248 1125.87C658.529 1115.96 655.071 1105.94 657.897 1095.06C674.317 1071.05 709.622 1063.63 737.237 1056.87C738.44 1056.58 739.643 1056.28 740.882 1055.97C848.394 1029.7 848.394 1029.7 870.71 1046.23Z" fill="white"/>
</svg>
